<svg xmlns="http://www.w3.org/2000/svg" width="200" height="200" viewBox="0 0 200 200"><title>Cloister &amp; Road — Verdigris Atlas</title><defs><pattern id="grass" width="24" height="24" patternUnits="userSpaceOnUse"><path d="M3,18 l3,-3 m-1,4 3,-3 M17,6 l2,-2" fill="none" stroke="#4f715d" stroke-width=".55" opacity=".5"/><circle cx="16" cy="19" r=".6" fill="#dfdab5" opacity=".65"/></pattern>
<pattern id="stone" width="24" height="16" patternUnits="userSpaceOnUse"><path d="M0,0 H24 M0,8 H24 M12,0 V8 M0,8 V16 M24,8 V16" fill="none" stroke="#214e48" stroke-width=".55" opacity=".5"/><path d="M1,1 H23 M1,9 H11" stroke="#9bc1a1" stroke-width=".5" opacity=".45"/></pattern>
<pattern id="hatch" width="5" height="5" patternUnits="userSpaceOnUse"><path d="M-1,1 L1,-1 M0,5 L5,0 M4,6 L6,4" stroke="#193e38" stroke-width=".65" opacity=".4"/></pattern>
<pattern id="gravel" width="17" height="19" patternUnits="userSpaceOnUse"><path d="M3,4 h2 m6,9 h2 M2,17 l1,-1" stroke="#877455" stroke-width=".7" opacity=".5"/><circle cx="12" cy="5" r=".7" fill="#f7e4b8"/></pattern><clipPath id="canvas"><rect width="200" height="200"/></clipPath><clipPath id="road"><path d="M80.000,199.000 L80.000,200.000 L120.000,200.000 L120.000,199.000 L120.000,100.000 L80.000,100.000 L80.000,199.000 Z" fill="white" /></clipPath></defs><g clip-path="url(#canvas)"><rect width="200" height="200" fill="#93a889"/><rect width="200" height="200" fill="url(#grass)"/><g transform="translate(28.37 43.65)"><ellipse cx="2" cy="5" rx="7" ry="3" fill="#62785e" opacity=".25"/><path d="M0,4 v5" stroke="#645e43" stroke-width="1.3"/><path d="M0,-9 C-9,-4 -9,4 -3,5 C0,9 8,4 6,-1 C6,-5 3,-8 0,-9Z" fill="#6d8d6d" stroke="#49684f" stroke-width=".8"/><path d="M-2,-6 Q-7,-1 -4,2 M0,-4 V4 M0,1 l3,-3" stroke="#bdc49c" stroke-width=".8" fill="none"/></g><g transform="translate(131.62 41.75)"><ellipse cx="2" cy="5" rx="7" ry="3" fill="#62785e" opacity=".25"/><path d="M0,4 v5" stroke="#645e43" stroke-width="1.3"/><path d="M0,-9 C-9,-4 -9,4 -3,5 C0,9 8,4 6,-1 C6,-5 3,-8 0,-9Z" fill="#6d8d6d" stroke="#49684f" stroke-width=".8"/><path d="M-2,-6 Q-7,-1 -4,2 M0,-4 V4 M0,1 l3,-3" stroke="#bdc49c" stroke-width=".8" fill="none"/></g><g transform="translate(177.26 159.22)"><ellipse cx="2" cy="5" rx="7" ry="3" fill="#62785e" opacity=".25"/><path d="M0,4 v5" stroke="#645e43" stroke-width="1.3"/><path d="M0,-9 C-9,-4 -9,4 -3,5 C0,9 8,4 6,-1 C6,-5 3,-8 0,-9Z" fill="#6d8d6d" stroke="#49684f" stroke-width=".8"/><path d="M-2,-6 Q-7,-1 -4,2 M0,-4 V4 M0,1 l3,-3" stroke="#bdc49c" stroke-width=".8" fill="none"/></g><g transform="translate(156.25 55.91)"><ellipse cx="2" cy="5" rx="7" ry="3" fill="#62785e" opacity=".25"/><path d="M0,4 v5" stroke="#645e43" stroke-width="1.3"/><path d="M0,-9 C-9,-4 -9,4 -3,5 C0,9 8,4 6,-1 C6,-5 3,-8 0,-9Z" fill="#6d8d6d" stroke="#49684f" stroke-width=".8"/><path d="M-2,-6 Q-7,-1 -4,2 M0,-4 V4 M0,1 l3,-3" stroke="#bdc49c" stroke-width=".8" fill="none"/></g><g transform="translate(51.26 143.82)"><ellipse cx="2" cy="5" rx="7" ry="3" fill="#62785e" opacity=".25"/><path d="M0,4 v5" stroke="#645e43" stroke-width="1.3"/><path d="M0,-9 C-9,-4 -9,4 -3,5 C0,9 8,4 6,-1 C6,-5 3,-8 0,-9Z" fill="#6d8d6d" stroke="#49684f" stroke-width=".8"/><path d="M-2,-6 Q-7,-1 -4,2 M0,-4 V4 M0,1 l3,-3" stroke="#bdc49c" stroke-width=".8" fill="none"/></g><g transform="translate(184.74 91.15)"><ellipse cx="2" cy="5" rx="7" ry="3" fill="#62785e" opacity=".25"/><path d="M0,4 v5" stroke="#645e43" stroke-width="1.3"/><path d="M0,-9 C-9,-4 -9,4 -3,5 C0,9 8,4 6,-1 C6,-5 3,-8 0,-9Z" fill="#6d8d6d" stroke="#49684f" stroke-width=".8"/><path d="M-2,-6 Q-7,-1 -4,2 M0,-4 V4 M0,1 l3,-3" stroke="#bdc49c" stroke-width=".8" fill="none"/></g><g transform="translate(148.89 163.38)"><ellipse cx="2" cy="5" rx="7" ry="3" fill="#62785e" opacity=".25"/><path d="M0,4 v5" stroke="#645e43" stroke-width="1.3"/><path d="M0,-9 C-9,-4 -9,4 -3,5 C0,9 8,4 6,-1 C6,-5 3,-8 0,-9Z" fill="#6d8d6d" stroke="#49684f" stroke-width=".8"/><path d="M-2,-6 Q-7,-1 -4,2 M0,-4 V4 M0,1 l3,-3" stroke="#bdc49c" stroke-width=".8" fill="none"/></g><g transform="translate(59.60 21.60)"><ellipse cx="2" cy="5" rx="7" ry="3" fill="#62785e" opacity=".25"/><path d="M0,4 v5" stroke="#645e43" stroke-width="1.3"/><path d="M0,-9 C-9,-4 -9,4 -3,5 C0,9 8,4 6,-1 C6,-5 3,-8 0,-9Z" fill="#6d8d6d" stroke="#49684f" stroke-width=".8"/><path d="M-2,-6 Q-7,-1 -4,2 M0,-4 V4 M0,1 l3,-3" stroke="#bdc49c" stroke-width=".8" fill="none"/></g><g transform="translate(174.21 24.20)"><ellipse cx="2" cy="5" rx="7" ry="3" fill="#62785e" opacity=".25"/><path d="M0,4 v5" stroke="#645e43" stroke-width="1.3"/><path d="M0,-9 C-9,-4 -9,4 -3,5 C0,9 8,4 6,-1 C6,-5 3,-8 0,-9Z" fill="#6d8d6d" stroke="#49684f" stroke-width=".8"/><path d="M-2,-6 Q-7,-1 -4,2 M0,-4 V4 M0,1 l3,-3" stroke="#bdc49c" stroke-width=".8" fill="none"/></g><path d="M80.000,199.000 L80.000,200.000 L120.000,200.000 L120.000,199.000 L120.000,100.000 L80.000,100.000 L80.000,199.000 Z" fill="#d4be8e" /><g clip-path="url(#road)"><path d="M80.000,199.000 L80.000,199.999 M120.000,199.999 L120.000,199.000 L120.000,100.000 L80.000,100.000 L80.000,199.000" fill="none" stroke="#776b4e" stroke-width="3"/><path d="M83.000,197.000 L117.000,197.000 L117.000,103.000 L83.000,103.000 L83.000,197.000" fill="none" stroke="#f2dca8" stroke-width="1"/><rect width="200" height="200" fill="url(#gravel)"/></g><g stroke-linejoin="round"><path d="M70,80 H130 V124 H70Z" fill="#d8cdb4" stroke="#4b5947" stroke-width="1.5"/><path d="M74,84 H126 V120 H74Z" fill="#acb894" stroke="#8d967a"/><path d="M83,88 H117 V113 H83Z" fill="#6f916c"/><path d="M86,91 H114 V110 H86Z" fill="#a0b88c"/><path d="M100,91 V110 M86,101 H114" stroke="#d8cba4" stroke-width="3"/><circle cx="100" cy="101" r="4" fill="#508278" stroke="#d4c59c"/>
        <path d="M68,78 H132 L125,87 H75Z M68,78 V117 L76,111 V87Z M132,78 V117 L124,111 V87Z" fill="#547d70" stroke="#304e43" stroke-width="1.2"/><path d="M70,80 H130 M71,81 V114" stroke="#acc2a2" fill="none"/>
        <path d="M70,113 H130 V124 H70Z" fill="#c9bb93" stroke="#4b5947"/>
        <path d="M78,123 v-5 a3,3 0 0 1 6,0 v5 M115,123 v-5 a3,3 0 0 1 6,0 v5" fill="#455e4b"/>
        <path d="M91,96 H109 V124 H91Z" fill="#e0d1aa" stroke="#4b5947"/><path d="M89,96 L100,82 L111,96Z" fill="#517e70" stroke="#304e43"/><path d="M100,85 L92,95 H100Z" fill="#88aa90"/><path d="M97,123 v-9 a3,3 0 0 1 6,0 v9" fill="#3c5242"/><path d="M98,103 v-3 a2,2 0 0 1 4,0 v3Z" fill="#436655"/><path d="M100,82 V75 M97,78 H103" stroke="#8b744c" stroke-width="1.5"/></g></g></svg>